STARTFONT 2.1
COMMENT Exported by Fony v1.4.5
FONT ProFont29
SIZE 29 72 72
FONTBOUNDINGBOX 16 28 0 -5
STARTPROPERTIES 6
COPYRIGHT "ProFont Distribution 2.2 Ñ Generated by Fontographer 4.1.5"
RESOLUTION_X 72
RESOLUTION_Y 72
FONT_ASCENT 24
FONT_DESCENT 5
DEFAULT_CHAR 0
ENDPROPERTIES
CHARS 256
STARTCHAR 000
ENCODING 0
SWIDTH 1152 0
DWIDTH 16 0
BBX 0 0 0 0
BITMAP
ENDCHAR
STARTCHAR 001
ENCODING 1
SWIDTH 1152 0
DWIDTH 16 0
BBX 0 0 0 0
BITMAP
ENDCHAR
STARTCHAR 002
ENCODING 2
SWIDTH 1152 0
DWIDTH 16 0
BBX 0 0 0 0
BITMAP
ENDCHAR
STARTCHAR 003
ENCODING 3
SWIDTH 1152 0
DWIDTH 16 0
BBX 0 0 0 0
BITMAP
ENDCHAR
STARTCHAR 004
ENCODING 4
SWIDTH 1152 0
DWIDTH 16 0
BBX 0 0 0 0
BITMAP
ENDCHAR
STARTCHAR 005
ENCODING 5
SWIDTH 1152 0
DWIDTH 16 0
BBX 0 0 0 0
BITMAP
ENDCHAR
STARTCHAR 006
ENCODING 6
SWIDTH 1152 0
DWIDTH 16 0
BBX 0 0 0 0
BITMAP
ENDCHAR
STARTCHAR 007
ENCODING 7
SWIDTH 1152 0
DWIDTH 16 0
BBX 0 0 0 0
BITMAP
ENDCHAR
STARTCHAR 008
ENCODING 8
SWIDTH 1152 0
DWIDTH 16 0
BBX 0 0 0 0
BITMAP
ENDCHAR
STARTCHAR 009
ENCODING 9
SWIDTH 1152 0
DWIDTH 16 0
BBX 0 0 0 0
BITMAP
ENDCHAR
STARTCHAR 010
ENCODING 10
SWIDTH 1152 0
DWIDTH 16 0
BBX 0 0 0 0
BITMAP
ENDCHAR
STARTCHAR 011
ENCODING 11
SWIDTH 1152 0
DWIDTH 16 0
BBX 0 0 0 0
BITMAP
ENDCHAR
STARTCHAR 012
ENCODING 12
SWIDTH 1152 0
DWIDTH 16 0
BBX 0 0 0 0
BITMAP
ENDCHAR
STARTCHAR 013
ENCODING 13
SWIDTH 1152 0
DWIDTH 16 0
BBX 0 0 0 0
BITMAP
ENDCHAR
STARTCHAR 014
ENCODING 14
SWIDTH 1152 0
DWIDTH 16 0
BBX 0 0 0 0
BITMAP
ENDCHAR
STARTCHAR 015
ENCODING 15
SWIDTH 1152 0
DWIDTH 16 0
BBX 0 0 0 0
BITMAP
ENDCHAR
STARTCHAR 016
ENCODING 16
SWIDTH 1152 0
DWIDTH 16 0
BBX 0 0 0 0
BITMAP
ENDCHAR
STARTCHAR 017
ENCODING 17
SWIDTH 1152 0
DWIDTH 16 0
BBX 0 0 0 0
BITMAP
ENDCHAR
STARTCHAR 018
ENCODING 18
SWIDTH 1152 0
DWIDTH 16 0
BBX 0 0 0 0
BITMAP
ENDCHAR
STARTCHAR 019
ENCODING 19
SWIDTH 1152 0
DWIDTH 16 0
BBX 0 0 0 0
BITMAP
ENDCHAR
STARTCHAR 020
ENCODING 20
SWIDTH 1152 0
DWIDTH 16 0
BBX 0 0 0 0
BITMAP
ENDCHAR
STARTCHAR 021
ENCODING 21
SWIDTH 1152 0
DWIDTH 16 0
BBX 0 0 0 0
BITMAP
ENDCHAR
STARTCHAR 022
ENCODING 22
SWIDTH 1152 0
DWIDTH 16 0
BBX 0 0 0 0
BITMAP
ENDCHAR
STARTCHAR 023
ENCODING 23
SWIDTH 1152 0
DWIDTH 16 0
BBX 0 0 0 0
BITMAP
ENDCHAR
STARTCHAR 024
ENCODING 24
SWIDTH 1152 0
DWIDTH 16 0
BBX 0 0 0 0
BITMAP
ENDCHAR
STARTCHAR 025
ENCODING 25
SWIDTH 1152 0
DWIDTH 16 0
BBX 0 0 0 0
BITMAP
ENDCHAR
STARTCHAR 026
ENCODING 26
SWIDTH 1152 0
DWIDTH 16 0
BBX 0 0 0 0
BITMAP
ENDCHAR
STARTCHAR 027
ENCODING 27
SWIDTH 1152 0
DWIDTH 16 0
BBX 0 0 0 0
BITMAP
ENDCHAR
STARTCHAR 028
ENCODING 28
SWIDTH 1152 0
DWIDTH 16 0
BBX 0 0 0 0
BITMAP
ENDCHAR
STARTCHAR 029
ENCODING 29
SWIDTH 1152 0
DWIDTH 16 0
BBX 0 0 0 0
BITMAP
ENDCHAR
STARTCHAR 030
ENCODING 30
SWIDTH 1152 0
DWIDTH 16 0
BBX 0 0 0 0
BITMAP
ENDCHAR
STARTCHAR 031
ENCODING 31
SWIDTH 1152 0
DWIDTH 16 0
BBX 0 0 0 0
BITMAP
ENDCHAR
STARTCHAR 032
ENCODING 32
SWIDTH 1152 0
DWIDTH 16 0
BBX 0 0 0 0
BITMAP
ENDCHAR
STARTCHAR 033
ENCODING 33
SWIDTH 1152 0
DWIDTH 16 0
BBX 3 19 5 0
BITMAP
E0
E0
E0
E0
E0
E0
E0
E0
E0
E0
E0
E0
E0
E0
00
00
E0
E0
E0
ENDCHAR
STARTCHAR 034
ENCODING 34
SWIDTH 1152 0
DWIDTH 16 0
BBX 9 9 2 13
BITMAP
E380
E380
E380
E380
E380
E380
E380
E380
E380
ENDCHAR
STARTCHAR 035
ENCODING 35
SWIDTH 1152 0
DWIDTH 16 0
BBX 15 15 0 5
BITMAP
1C70
1C70
1C70
FFFE
FFFE
FFFE
1C70
1C70
1C70
FFFE
FFFE
FFFE
1C70
1C70
1C70
ENDCHAR
STARTCHAR 036
ENCODING 36
SWIDTH 1152 0
DWIDTH 16 0
BBX 13 25 0 -3
BITMAP
0700
0700
0700
0F80
3FE0
7FF0
7770
E738
E738
E700
7700
7F80
3FE0
0FF0
0770
0738
E738
E738
7770
7FF0
3FE0
0F80
0700
0700
0700
ENDCHAR
STARTCHAR 037
ENCODING 37
SWIDTH 1152 0
DWIDTH 16 0
BBX 14 19 0 0
BITMAP
1FFC
3FFC
7FFC
661C
E73C
E778
E7F0
67E0
7FE0
3FC0
1FF0
1F30
3F38
7F38
F738
E330
E3F0
E1E0
E0C0
ENDCHAR
STARTCHAR 038
ENCODING 38
SWIDTH 1152 0
DWIDTH 16 0
BBX 14 19 0 0
BITMAP
0F00
3FC0
7FE0
70E0
E1E0
E3C0
E780
7F00
7E00
3C00
7E08
7F1C
E7BC
E3F8
E1F0
71F0
7FF8
3FBC
0E18
ENDCHAR
STARTCHAR 039
ENCODING 39
SWIDTH 1152 0
DWIDTH 16 0
BBX 3 9 5 13
BITMAP
E0
E0
E0
E0
E0
E0
E0
E0
E0
ENDCHAR
STARTCHAR 040
ENCODING 40
SWIDTH 1152 0
DWIDTH 16 0
BBX 9 25 3 -3
BITMAP
0300
0780
0F00
1E00
3C00
7800
F000
E000
E000
E000
E000
E000
E000
E000
E000
E000
E000
E000
F000
7800
3C00
1E00
0F00
0780
0300
ENDCHAR
STARTCHAR 041
ENCODING 41
SWIDTH 1152 0
DWIDTH 16 0
BBX 9 25 2 -3
BITMAP
6000
F000
7800
3C00
1E00
0F00
0780
0380
0380
0380
0380
0380
0380
0380
0380
0380
0380
0380
0780
0F00
1E00
3C00
7800
F000
6000
ENDCHAR
STARTCHAR 042
ENCODING 42
SWIDTH 1152 0
DWIDTH 16 0
BBX 13 13 0 5
BITMAP
0700
0700
6730
F7F8
7FF0
1FC0
1FC0
7FF0
FFF8
6730
0700
0700
0700
ENDCHAR
STARTCHAR 043
ENCODING 43
SWIDTH 1152 0
DWIDTH 16 0
BBX 13 13 0 3
BITMAP
0700
0700
0700
0700
0700
FFF8
FFF8
FFF8
0700
0700
0700
0700
0700
ENDCHAR
STARTCHAR 044
ENCODING 44
SWIDTH 1152 0
DWIDTH 16 0
BBX 6 11 3 -5
BITMAP
38
7C
7C
7C
3C
1C
1C
3C
78
F0
60
ENDCHAR
STARTCHAR 045
ENCODING 45
SWIDTH 1152 0
DWIDTH 16 0
BBX 8 3 3 8
BITMAP
FF
FF
FF
ENDCHAR
STARTCHAR 046
ENCODING 46
SWIDTH 1152 0
DWIDTH 16 0
BBX 5 5 4 1
BITMAP
70
F8
F8
F8
70
ENDCHAR
STARTCHAR 047
ENCODING 47
SWIDTH 1152 0
DWIDTH 16 0
BBX 15 26 0 -5
BITMAP
000E
000E
001C
001C
0038
0038
0070
0070
00E0
00E0
01C0
01C0
0380
0380
0700
0700
0E00
0E00
1C00
1C00
3800
3800
7000
7000
E000
E000
ENDCHAR
STARTCHAR 048
ENCODING 48
SWIDTH 1152 0
DWIDTH 16 0
BBX 14 19 0 0
BITMAP
0FC0
3FF0
7FF8
7038
E03C
E07C
E0FC
E1FC
E3DC
E79C
EF1C
FE1C
FC1C
F81C
F01C
7038
7FF8
3FF0
0FC0
ENDCHAR
STARTCHAR 049
ENCODING 49
SWIDTH 1152 0
DWIDTH 16 0
BBX 13 19 0 0
BITMAP
0700
0700
0F00
7F00
7F00
7F00
0700
0700
0700
0700
0700
0700
0700
0700
0700
0700
FFF8
FFF8
FFF8
ENDCHAR
STARTCHAR 050
ENCODING 50
SWIDTH 1152 0
DWIDTH 16 0
BBX 14 19 0 0
BITMAP
0FC0
3FF0
7FF8
7038
E01C
E01C
001C
0038
0078
00F0
01E0
03C0
0780
0F00
1E00
3C00
7FFC
FFFC
FFFC
ENDCHAR
STARTCHAR 051
ENCODING 51
SWIDTH 1152 0
DWIDTH 16 0
BBX 14 19 0 0
BITMAP
0FC0
3FF0
7FF8
7038
E01C
E01C
001C
0078
03F0
03E0
03F0
0078
001C
E01C
E01C
7038
7FF8
3FF0
0FC0
ENDCHAR
STARTCHAR 052
ENCODING 52
SWIDTH 1152 0
DWIDTH 16 0
BBX 14 19 0 0
BITMAP
00E0
01E0
03E0
07E0
0FE0
1EE0
3CE0
78E0
F0E0
E0E0
FFFC
FFFC
FFFC
00E0
00E0
00E0
07FC
07FC
07FC
ENDCHAR
STARTCHAR 053
ENCODING 53
SWIDTH 1152 0
DWIDTH 16 0
BBX 14 19 0 0
BITMAP
FFFC
FFFC
FFFC
E000
E000
FFC0
FFF0
FFF8
0038
001C
001C
001C
001C
E01C
E01C
7038
7FF8
3FF0
0FC0
ENDCHAR
STARTCHAR 054
ENCODING 54
SWIDTH 1152 0
DWIDTH 16 0
BBX 14 19 0 0
BITMAP
0FE0
3FE0
7FE0
7000
E000
FFC0
FFF0
FFF8
E038
E01C
E01C
E01C
E01C
E01C
E01C
7038
7FF8
3FF0
0FC0
ENDCHAR
STARTCHAR 055
ENCODING 55
SWIDTH 1152 0
DWIDTH 16 0
BBX 14 19 0 0
BITMAP
FFFC
FFFC
FFFC
001C
001C
001C
003C
0078
00F0
01E0
03C0
0780
0700
0700
0700
0700
0700
0700
0700
ENDCHAR
STARTCHAR 056
ENCODING 56
SWIDTH 1152 0
DWIDTH 16 0
BBX 14 19 0 0
BITMAP
0FC0
3FF0
7FF8
7038
E01C
E01C
E01C
7878
3FF0
1FE0
3FF0
7878
E01C
E01C
E01C
7038
7FF8
3FF0
0FC0
ENDCHAR
STARTCHAR 057
ENCODING 57
SWIDTH 1152 0
DWIDTH 16 0
BBX 14 19 0 0
BITMAP
0FC0
3FF0
7FF8
7038
E01C
E01C
E01C
E01C
E01C
E01C
701C
7FFC
3FFC
0FFC
001C
0038
1FF8
1FF0
1FC0
ENDCHAR
STARTCHAR 058
ENCODING 58
SWIDTH 1152 0
DWIDTH 16 0
BBX 5 13 4 1
BITMAP
70
F8
F8
F8
70
00
00
00
70
F8
F8
F8
70
ENDCHAR
STARTCHAR 059
ENCODING 59
SWIDTH 1152 0
DWIDTH 16 0
BBX 6 19 3 -5
BITMAP
38
7C
7C
7C
38
00
00
00
38
7C
7C
7C
3C
1C
1C
3C
78
F0
60
ENDCHAR
STARTCHAR 060
ENCODING 60
SWIDTH 1152 0
DWIDTH 16 0
BBX 12 19 2 0
BITMAP
0060
00F0
01E0
03C0
0780
0F00
1E00
3C00
7800
F000
7800
3C00
1E00
0F00
0780
03C0
01E0
00F0
0060
ENDCHAR
STARTCHAR 061
ENCODING 61
SWIDTH 1152 0
DWIDTH 16 0
BBX 14 9 0 5
BITMAP
FFFC
FFFC
FFFC
0000
0000
0000
FFFC
FFFC
FFFC
ENDCHAR
STARTCHAR 062
ENCODING 62
SWIDTH 1152 0
DWIDTH 16 0
BBX 12 19 2 0
BITMAP
6000
F000
7800
3C00
1E00
0F00
0780
03C0
01E0
00F0
01E0
03C0
0780
0F00
1E00
3C00
7800
F000
6000
ENDCHAR
STARTCHAR 063
ENCODING 63
SWIDTH 1152 0
DWIDTH 16 0
BBX 14 19 0 0
BITMAP
0FC0
3FF0
7FF8
7038
E01C
E01C
001C
003C
0078
00F0
01E0
03C0
0780
0700
0000
0000
0700
0700
0700
ENDCHAR
STARTCHAR 064
ENCODING 64
SWIDTH 1152 0
DWIDTH 16 0
BBX 14 19 0 0
BITMAP
0FC0
3FF0
7FF8
7038
E01C
E1FC
E3FC
E7FC
E71C
E71C
E71C
E7FC
E3F8
E1F0
E000
7000
7FFC
3FFC
0FFC
ENDCHAR
STARTCHAR 065
ENCODING 65
SWIDTH 1152 0
DWIDTH 16 0
BBX 14 19 0 0
BITMAP
0780
0780
0FC0
0FC0
1CE0
1CE0
3870
3870
7038
7038
E01C
FFFC
FFFC
FFFC
E01C
E01C
E01C
E01C
E01C
ENDCHAR
STARTCHAR 066
ENCODING 66
SWIDTH 1152 0
DWIDTH 16 0
BBX 14 19 0 0
BITMAP
FFC0
FFF0
FFF8
E038
E01C
E01C
E01C
E078
FFF0
FFE0
FFF0
E078
E01C
E01C
E01C
E038
FFF8
FFF0
FFC0
ENDCHAR
STARTCHAR 067
ENCODING 67
SWIDTH 1152 0
DWIDTH 16 0
BBX 14 19 0 0
BITMAP
0FC0
3FF0
7FF8
7038
E01C
E01C
E000
E000
E000
E000
E000
E000
E000
E01C
E01C
7038
7FF8
3FF0
0FC0
ENDCHAR
STARTCHAR 068
ENCODING 68
SWIDTH 1152 0
DWIDTH 16 0
BBX 14 19 0 0
BITMAP
FFC0
FFF0
FFF8
E038
E01C
E01C
E01C
E01C
E01C
E01C
E01C
E01C
E01C
E01C
E01C
E038
FFF8
FFF0
FFC0
ENDCHAR
STARTCHAR 069
ENCODING 69
SWIDTH 1152 0
DWIDTH 16 0
BBX 14 19 0 0
BITMAP
FFFC
FFFC
FFFC
E000
E000
E000
E000
E000
FFE0
FFE0
FFE0
E000
E000
E000
E000
E000
FFFC
FFFC
FFFC
ENDCHAR
STARTCHAR 070
ENCODING 70
SWIDTH 1152 0
DWIDTH 16 0
BBX 14 19 0 0
BITMAP
FFFC
FFFC
FFFC
E000
E000
E000
E000
E000
FFE0
FFE0
FFE0
E000
E000
E000
E000
E000
E000
E000
E000
ENDCHAR
STARTCHAR 071
ENCODING 71
SWIDTH 1152 0
DWIDTH 16 0
BBX 14 19 0 0
BITMAP
0FC0
3FF0
7FF8
7038
E01C
E01C
E000
E000
E0FC
E0FC
E0FC
E01C
E01C
E01C
E01C
7038
7FF8
3FF0
0FC0
ENDCHAR
STARTCHAR 072
ENCODING 72
SWIDTH 1152 0
DWIDTH 16 0
BBX 14 19 0 0
BITMAP
E01C
E01C
E01C
E01C
E01C
E01C
E01C
E01C
FFFC
FFFC
FFFC
E01C
E01C
E01C
E01C
E01C
E01C
E01C
E01C
ENDCHAR
STARTCHAR 073
ENCODING 73
SWIDTH 1152 0
DWIDTH 16 0
BBX 13 19 0 0
BITMAP
FFF8
FFF8
FFF8
0700
0700
0700
0700
0700
0700
0700
0700
0700
0700
0700
0700
0700
FFF8
FFF8
FFF8
ENDCHAR
STARTCHAR 074
ENCODING 74
SWIDTH 1152 0
DWIDTH 16 0
BBX 14 19 0 0
BITMAP
001C
001C
001C
001C
001C
001C
001C
001C
001C
001C
001C
E01C
E01C
E01C
E01C
7038
7FF8
3FF0
0FC0
ENDCHAR
STARTCHAR 075
ENCODING 75
SWIDTH 1152 0
DWIDTH 16 0
BBX 13 19 0 0
BITMAP
E038
E078
E0F0
E1E0
E3C0
E780
EF00
FE00
FC00
F800
FC00
FE00
EF00
E780
E3C0
E1E0
E0F0
E078
E038
ENDCHAR
STARTCHAR 076
ENCODING 76
SWIDTH 1152 0
DWIDTH 16 0
BBX 14 19 0 0
BITMAP
E000
E000
E000
E000
E000
E000
E000
E000
E000
E000
E000
E000
E000
E000
E000
E000
FFFC
FFFC
FFFC
ENDCHAR
STARTCHAR 077
ENCODING 77
SWIDTH 1152 0
DWIDTH 16 0
BBX 15 19 0 0
BITMAP
E00E
F01E
F83E
FC7E
FEFE
EFEE
E7CE
E38E
E38E
E38E
E38E
E00E
E00E
E00E
E00E
E00E
E00E
E00E
E00E
ENDCHAR
STARTCHAR 078
ENCODING 78
SWIDTH 1152 0
DWIDTH 16 0
BBX 14 19 0 0
BITMAP
E01C
F01C
F81C
FC1C
FE1C
EF1C
E79C
E3DC
E1FC
E0FC
E07C
E03C
E01C
E01C
E01C
E01C
E01C
E01C
E01C
ENDCHAR
STARTCHAR 079
ENCODING 79
SWIDTH 1152 0
DWIDTH 16 0
BBX 14 19 0 0
BITMAP
0FC0
3FF0
7FF8
7038
E01C
E01C
E01C
E01C
E01C
E01C
E01C
E01C
E01C
E01C
E01C
7038
7FF8
3FF0
0FC0
ENDCHAR
STARTCHAR 080
ENCODING 80
SWIDTH 1152 0
DWIDTH 16 0
BBX 14 19 0 0
BITMAP
FFC0
FFF0
FFF8
E038
E01C
E01C
E01C
E038
FFF8
FFF0
FFC0
E000
E000
E000
E000
E000
E000
E000
E000
ENDCHAR
STARTCHAR 081
ENCODING 81
SWIDTH 1152 0
DWIDTH 16 0
BBX 14 22 0 -3
BITMAP
0FC0
3FF0
7FF8
7038
E01C
E01C
E01C
E01C
E01C
E01C
E01C
E01C
E01C
E61C
EF1C
77F8
7FF8
3FF0
0FF0
0078
003C
0018
ENDCHAR
STARTCHAR 082
ENCODING 82
SWIDTH 1152 0
DWIDTH 16 0
BBX 14 19 0 0
BITMAP
FFC0
FFF0
FFF8
E038
E01C
E01C
E01C
E078
FFF0
FFE0
FFF0
E078
E01C
E01C
E01C
E01C
E01C
E01C
E01C
ENDCHAR
STARTCHAR 083
ENCODING 83
SWIDTH 1152 0
DWIDTH 16 0
BBX 14 19 0 0
BITMAP
0FC0
3FF0
7FF8
7038
E01C
E01C
E000
7000
7FC0
3FF0
0FF8
0038
001C
E01C
E01C
7038
7FF8
3FF0
0FC0
ENDCHAR
STARTCHAR 084
ENCODING 84
SWIDTH 1152 0
DWIDTH 16 0
BBX 13 19 0 0
BITMAP
FFF8
FFF8
FFF8
0700
0700
0700
0700
0700
0700
0700
0700
0700
0700
0700
0700
0700
0700
0700
0700
ENDCHAR
STARTCHAR 085
ENCODING 85
SWIDTH 1152 0
DWIDTH 16 0
BBX 14 19 0 0
BITMAP
E01C
E01C
E01C
E01C
E01C
E01C
E01C
E01C
E01C
E01C
E01C
E01C
E01C
E01C
E01C
7038
7FF8
3FF0
0FC0
ENDCHAR
STARTCHAR 086
ENCODING 86
SWIDTH 1152 0
DWIDTH 16 0
BBX 14 19 0 0
BITMAP
E01C
E01C
E01C
E01C
E01C
E01C
E01C
7038
7038
3870
3870
1CE0
1CE0
0FC0
0FC0
0780
0780
0300
0300
ENDCHAR
STARTCHAR 087
ENCODING 87
SWIDTH 1152 0
DWIDTH 16 0
BBX 15 19 0 0
BITMAP
E00E
E00E
E00E
E00E
E00E
E00E
E00E
E00E
E38E
E38E
E38E
E38E
E7CE
EFFE
FEFE
FC7E
F83E
F01E
E00E
ENDCHAR
STARTCHAR 088
ENCODING 88
SWIDTH 1152 0
DWIDTH 16 0
BBX 14 19 0 0
BITMAP
E01C
E01C
E01C
E01C
F03C
7878
3CF0
1FE0
0FC0
0780
0FC0
1FE0
3CF0
7878
F03C
E01C
E01C
E01C
E01C
ENDCHAR
STARTCHAR 089
ENCODING 89
SWIDTH 1152 0
DWIDTH 16 0
BBX 13 19 0 0
BITMAP
E038
E038
E038
E038
E038
E038
E038
F078
78F0
3DE0
1FC0
0F80
0700
0700
0700
0700
0700
0700
0700
ENDCHAR
STARTCHAR 090
ENCODING 90
SWIDTH 1152 0
DWIDTH 16 0
BBX 14 19 0 0
BITMAP
FFFC
FFFC
FFFC
001C
003C
0078
00F0
01E0
03C0
0780
0F00
1E00
3C00
7800
F000
E000
FFFC
FFFC
FFFC
ENDCHAR
STARTCHAR 091
ENCODING 91
SWIDTH 1152 0
DWIDTH 16 0
BBX 6 25 5 -3
BITMAP
FC
FC
FC
E0
E0
E0
E0
E0
E0
E0
E0
E0
E0
E0
E0
E0
E0
E0
E0
E0
E0
E0
FC
FC
FC
ENDCHAR
STARTCHAR 092
ENCODING 92
SWIDTH 1152 0
DWIDTH 16 0
BBX 15 26 1 -5
BITMAP
E000
E000
7000
7000
3800
3800
1C00
1C00
0E00
0E00
0700
0700
0380
0380
01C0
01C0
00E0
00E0
0070
0070
0038
0038
001C
001C
000E
000E
ENDCHAR
STARTCHAR 093
ENCODING 93
SWIDTH 1152 0
DWIDTH 16 0
BBX 6 25 2 -3
BITMAP
FC
FC
FC
1C
1C
1C
1C
1C
1C
1C
1C
1C
1C
1C
1C
1C
1C
1C
1C
1C
1C
1C
FC
FC
FC
ENDCHAR
STARTCHAR 094
ENCODING 94
SWIDTH 1152 0
DWIDTH 16 0
BBX 14 8 0 11
BITMAP
0300
0780
0FC0
1FE0
3CF0
7878
F03C
6018
ENDCHAR
STARTCHAR 095
ENCODING 95
SWIDTH 1152 0
DWIDTH 16 0
BBX 16 3 0 -5
BITMAP
FFFF
FFFF
FFFF
ENDCHAR
STARTCHAR 096
ENCODING 96
SWIDTH 1152 0
DWIDTH 16 0
BBX 7 6 2 15
BITMAP
60
F0
78
3C
1E
0C
ENDCHAR
STARTCHAR 097
ENCODING 97
SWIDTH 1152 0
DWIDTH 16 0
BBX 14 14 0 0
BITMAP
0FFC
3FFC
7FFC
701C
E01C
E01C
E01C
E01C
E03C
E07C
71FC
7FDC
3F9C
0E1C
ENDCHAR
STARTCHAR 098
ENCODING 98
SWIDTH 1152 0
DWIDTH 16 0
BBX 14 19 0 0
BITMAP
E000
E000
E000
E000
E000
FFC0
FFF0
FFF8
E038
E01C
E01C
E01C
E01C
E01C
E01C
E038
FFF8
FFF0
FFC0
ENDCHAR
STARTCHAR 099
ENCODING 99
SWIDTH 1152 0
DWIDTH 16 0
BBX 14 14 0 0
BITMAP
0FC0
3FF0
7FF8
7038
E01C
E01C
E000
E000
E000
E000
7000
7FFC
3FFC
0FFC
ENDCHAR
STARTCHAR 100
ENCODING 100
SWIDTH 1152 0
DWIDTH 16 0
BBX 14 19 0 0
BITMAP
001C
001C
001C
001C
001C
0FFC
3FFC
7FFC
701C
E01C
E01C
E01C
E01C
E01C
E01C
701C
7FFC
3FFC
0FFC
ENDCHAR
STARTCHAR 101
ENCODING 101
SWIDTH 1152 0
DWIDTH 16 0
BBX 14 14 0 0
BITMAP
0FC0
3FF0
7FF8
7038
E01C
E01C
FFFC
FFFC
FFFC
E000
7000
7FFC
3FFC
0FFC
ENDCHAR
STARTCHAR 102
ENCODING 102
SWIDTH 1152 0
DWIDTH 16 0
BBX 11 19 2 0
BITMAP
01E0
07E0
0FE0
0E00
1C00
FF80
FF80
FF80
1C00
1C00
1C00
1C00
1C00
1C00
1C00
1C00
1C00
1C00
1C00
ENDCHAR
STARTCHAR 103
ENCODING 103
SWIDTH 1152 0
DWIDTH 16 0
BBX 14 19 0 -5
BITMAP
0FFC
3FFC
7FFC
701C
E01C
E01C
E01C
E01C
E01C
E01C
701C
7FFC
3FFC
0FFC
001C
0038
1FF8
1FF0
1FC0
ENDCHAR
STARTCHAR 104
ENCODING 104
SWIDTH 1152 0
DWIDTH 16 0
BBX 14 19 0 0
BITMAP
E000
E000
E000
E000
E000
FFC0
FFF0
FFF8
E038
E01C
E01C
E01C
E01C
E01C
E01C
E01C
E01C
E01C
E01C
ENDCHAR
STARTCHAR 105
ENCODING 105
SWIDTH 1152 0
DWIDTH 16 0
BBX 9 19 2 0
BITMAP
1C00
1C00
1C00
0000
0000
FC00
FC00
FC00
1C00
1C00
1C00
1C00
1C00
1C00
1C00
1C00
FF80
FF80
FF80
ENDCHAR
STARTCHAR 106
ENCODING 106
SWIDTH 1152 0
DWIDTH 16 0
BBX 8 24 0 -5
BITMAP
07
07
07
00
00
3F
3F
3F
07
07
07
07
07
07
07
07
07
07
07
07
0E
FE
FC
F0
ENDCHAR
STARTCHAR 107
ENCODING 107
SWIDTH 1152 0
DWIDTH 16 0
BBX 14 19 0 0
BITMAP
E000
E000
E000
E000
E000
E078
E0F0
E1E0
E3C0
E780
EF00
FF00
FF80
FBC0
F1E0
E0F0
E078
E03C
E01C
ENDCHAR
STARTCHAR 108
ENCODING 108
SWIDTH 1152 0
DWIDTH 16 0
BBX 9 19 2 0
BITMAP
FC00
FC00
FC00
1C00
1C00
1C00
1C00
1C00
1C00
1C00
1C00
1C00
1C00
1C00
1C00
1C00
FF80
FF80
FF80
ENDCHAR
STARTCHAR 109
ENCODING 109
SWIDTH 1152 0
DWIDTH 16 0
BBX 15 14 0 0
BITMAP
FFE0
FFF8
FFFC
E39C
E38E
E38E
E38E
E38E
E38E
E38E
E38E
E38E
E38E
E38E
ENDCHAR
STARTCHAR 110
ENCODING 110
SWIDTH 1152 0
DWIDTH 16 0
BBX 14 14 0 0
BITMAP
E1C0
E7F0
EFF8
FE38
F81C
F01C
E01C
E01C
E01C
E01C
E01C
E01C
E01C
E01C
ENDCHAR
STARTCHAR 111
ENCODING 111
SWIDTH 1152 0
DWIDTH 16 0
BBX 14 14 0 0
BITMAP
0FC0
3FF0
7FF8
7038
E01C
E01C
E01C
E01C
E01C
E01C
7038
7FF8
3FF0
0FC0
ENDCHAR
STARTCHAR 112
ENCODING 112
SWIDTH 1152 0
DWIDTH 16 0
BBX 14 19 0 -5
BITMAP
FFC0
FFF0
FFF8
E038
E01C
E01C
E01C
E01C
E01C
E01C
E038
FFF8
FFF0
FFC0
E000
E000
E000
E000
E000
ENDCHAR
STARTCHAR 113
ENCODING 113
SWIDTH 1152 0
DWIDTH 16 0
BBX 14 19 0 -5
BITMAP
0FFC
3FFC
7FFC
701C
E01C
E01C
E01C
E01C
E01C
E01C
701C
7FFC
3FFC
0FFC
001C
001C
001C
001C
001C
ENDCHAR
STARTCHAR 114
ENCODING 114
SWIDTH 1152 0
DWIDTH 16 0
BBX 14 14 0 0
BITMAP
E1C0
E7F0
EFF8
FE38
F81C
F01C
E000
E000
E000
E000
E000
E000
E000
E000
ENDCHAR
STARTCHAR 115
ENCODING 115
SWIDTH 1152 0
DWIDTH 16 0
BBX 14 14 0 0
BITMAP
0FFC
3FFC
7FFC
F000
E000
FFC0
7FF0
1FF8
003C
001C
003C
FFF8
FFF0
FFC0
ENDCHAR
STARTCHAR 116
ENCODING 116
SWIDTH 1152 0
DWIDTH 16 0
BBX 11 19 2 0
BITMAP
1C00
1C00
1C00
1C00
1C00
FF80
FF80
FF80
1C00
1C00
1C00
1C00
1C00
1C00
1C00
0E00
0FE0
07E0
01E0
ENDCHAR
STARTCHAR 117
ENCODING 117
SWIDTH 1152 0
DWIDTH 16 0
BBX 14 14 0 0
BITMAP
E01C
E01C
E01C
E01C
E01C
E01C
E01C
E01C
E03C
E07C
71FC
7FDC
3F9C
0E1C
ENDCHAR
STARTCHAR 118
ENCODING 118
SWIDTH 1152 0
DWIDTH 16 0
BBX 14 14 0 0
BITMAP
E01C
E01C
E01C
E01C
E01C
7038
7038
3870
3870
1CE0
1CE0
0FC0
0FC0
0780
ENDCHAR
STARTCHAR 119
ENCODING 119
SWIDTH 1152 0
DWIDTH 16 0
BBX 15 14 0 0
BITMAP
E38E
E38E
E38E
E38E
E38E
E38E
E38E
E38E
E38E
E38E
F7DE
7FFC
7EFC
1C70
ENDCHAR
STARTCHAR 120
ENCODING 120
SWIDTH 1152 0
DWIDTH 16 0
BBX 14 14 0 0
BITMAP
E01C
E01C
F03C
7878
3CF0
1FE0
0FC0
0FC0
1FE0
3CF0
7878
F03C
E01C
E01C
ENDCHAR
STARTCHAR 121
ENCODING 121
SWIDTH 1152 0
DWIDTH 16 0
BBX 14 19 0 -5
BITMAP
E01C
E01C
E01C
E01C
E01C
E01C
E01C
E01C
E01C
E01C
701C
7FFC
3FFC
0FFC
001C
0038
1FF8
1FF0
1FC0
ENDCHAR
STARTCHAR 122
ENCODING 122
SWIDTH 1152 0
DWIDTH 16 0
BBX 13 14 0 0
BITMAP
FFF8
FFF8
FFF8
00F0
01E0
03C0
0780
0F00
1E00
3C00
7800
FFF8
FFF8
FFF8
ENDCHAR
STARTCHAR 123
ENCODING 123
SWIDTH 1152 0
DWIDTH 16 0
BBX 9 29 3 -5
BITMAP
0380
0F80
0F80
1E00
1C00
1C00
1C00
1C00
1C00
1C00
1C00
1C00
3C00
F800
E000
F800
3C00
1C00
1C00
1C00
1C00
1C00
1C00
1C00
1C00
1E00
0F80
0F80
0380
ENDCHAR
STARTCHAR 124
ENCODING 124
SWIDTH 1152 0
DWIDTH 16 0
BBX 3 25 5 -3
BITMAP
E0
E0
E0
E0
E0
E0
E0
E0
E0
E0
E0
E0
E0
E0
E0
E0
E0
E0
E0
E0
E0
E0
E0
E0
E0
ENDCHAR
STARTCHAR 125
ENCODING 125
SWIDTH 1152 0
DWIDTH 16 0
BBX 9 29 2 -5
BITMAP
E000
F800
F800
3C00
1C00
1C00
1C00
1C00
1C00
1C00
1C00
1C00
1E00
0F80
0380
0F80
1E00
1C00
1C00
1C00
1C00
1C00
1C00
1C00
1C00
3C00
F800
F800
E000
ENDCHAR
STARTCHAR 126
ENCODING 126
SWIDTH 1152 0
DWIDTH 16 0
BBX 13 5 0 8
BITMAP
3C38
7F38
FFF8
E7F0
E1E0
ENDCHAR
STARTCHAR 127
ENCODING 127
SWIDTH 1152 0
DWIDTH 16 0
BBX 0 0 0 0
BITMAP
ENDCHAR
STARTCHAR 128
ENCODING 128
SWIDTH 1152 0
DWIDTH 16 0
BBX 0 0 0 0
BITMAP
ENDCHAR
STARTCHAR 129
ENCODING 129
SWIDTH 1152 0
DWIDTH 16 0
BBX 0 0 0 0
BITMAP
ENDCHAR
STARTCHAR 130
ENCODING 130
SWIDTH 1152 0
DWIDTH 16 0
BBX 5 8 0 -3
BITMAP
38
38
38
38
38
78
F0
60
ENDCHAR
STARTCHAR 131
ENCODING 131
SWIDTH 1152 0
DWIDTH 16 0
BBX 13 29 0 -5
BITMAP
0078
01F8
03F8
0380
0700
0700
0700
0700
0700
0700
1FC0
1FC0
1FC0
0700
0700
0700
0700
0700
0700
0700
0700
0700
0700
0700
0700
0E00
FE00
FC00
F000
ENDCHAR
STARTCHAR 132
ENCODING 132
SWIDTH 1152 0
DWIDTH 16 0
BBX 11 8 0 -3
BITMAP
38E0
38E0
38E0
38E0
38E0
79E0
F3C0
6180
ENDCHAR
STARTCHAR 133
ENCODING 133
SWIDTH 1152 0
DWIDTH 16 0
BBX 13 3 0 0
BITMAP
E738
E738
E738
ENDCHAR
STARTCHAR 134
ENCODING 134
SWIDTH 1152 0
DWIDTH 16 0
BBX 9 14 2 5
BITMAP
1C00
1C00
1C00
FF80
FF80
FF80
1C00
1C00
1C00
1C00
1C00
1C00
1C00
1C00
ENDCHAR
STARTCHAR 135
ENCODING 135
SWIDTH 1152 0
DWIDTH 16 0
BBX 9 14 2 5
BITMAP
1C00
1C00
1C00
FF80
FF80
FF80
1C00
1C00
FF80
FF80
FF80
1C00
1C00
1C00
ENDCHAR
STARTCHAR 136
ENCODING 136
SWIDTH 1152 0
DWIDTH 16 0
BBX 10 6 2 16
BITMAP
0C00
1E00
3F00
7F80
F3C0
6180
ENDCHAR
STARTCHAR 137
ENCODING 137
SWIDTH 1152 0
DWIDTH 16 0
BBX 15 22 0 0
BITMAP
1FFE
3FFE
7FFE
771E
E33C
E378
E3F0
F7E0
7FC0
7F80
3F00
0F38
3FFC
7FFC
FDEE
F8C6
D8C6
98C6
1DEE
0FFC
0FFC
0738
ENDCHAR
STARTCHAR 138
ENCODING 138
SWIDTH 1152 0
DWIDTH 16 0
BBX 14 24 0 0
BITMAP
18C0
3DE0
1FC0
0F80
0700
0FC0
3FF0
7FF8
7038
E01C
E01C
E000
7000
7FC0
3FF0
0FF8
0038
001C
E01C
E01C
7038
7FF8
3FF0
0FC0
ENDCHAR
STARTCHAR 139
ENCODING 139
SWIDTH 1152 0
DWIDTH 16 0
BBX 5 13 0 -1
BITMAP
30
38
70
70
E0
E0
E0
E0
E0
70
70
38
30
ENDCHAR
STARTCHAR 140
ENCODING 140
SWIDTH 1152 0
DWIDTH 16 0
BBX 14 19 0 0
BITMAP
0FFC
3FFC
7FFC
7700
E700
E700
E700
E700
E7E0
E7E0
E7E0
E700
E700
E700
E700
7700
7FFC
3FFC
0FFC
ENDCHAR
STARTCHAR 141
ENCODING 141
SWIDTH 1152 0
DWIDTH 16 0
BBX 0 0 0 0
BITMAP
ENDCHAR
STARTCHAR 142
ENCODING 142
SWIDTH 1152 0
DWIDTH 16 0
BBX 0 0 0 0
BITMAP
ENDCHAR
STARTCHAR 143
ENCODING 143
SWIDTH 1152 0
DWIDTH 16 0
BBX 0 0 0 0
BITMAP
ENDCHAR
STARTCHAR 144
ENCODING 144
SWIDTH 1152 0
DWIDTH 16 0
BBX 0 0 0 0
BITMAP
ENDCHAR
STARTCHAR 145
ENCODING 145
SWIDTH 1152 0
DWIDTH 16 0
BBX 5 8 5 11
BITMAP
30
78
F0
E0
E0
E0
E0
E0
ENDCHAR
STARTCHAR 146
ENCODING 146
SWIDTH 1152 0
DWIDTH 16 0
BBX 5 8 6 11
BITMAP
38
38
38
38
38
78
F0
60
ENDCHAR
STARTCHAR 147
ENCODING 147
SWIDTH 1152 0
DWIDTH 16 0
BBX 11 8 2 11
BITMAP
30C0
79E0
F3C0
E380
E380
E380
E380
E380
ENDCHAR
STARTCHAR 148
ENCODING 148
SWIDTH 1152 0
DWIDTH 16 0
BBX 11 8 3 11
BITMAP
38E0
38E0
38E0
38E0
38E0
79E0
F3C0
6180
ENDCHAR
STARTCHAR 149
ENCODING 149
SWIDTH 1152 0
DWIDTH 16 0
BBX 13 13 0 3
BITMAP
0F80
3FE0
7FF0
7FF0
FFF8
FFF8
FFF8
FFF8
FFF8
7FF0
7FF0
3FE0
0F80
ENDCHAR
STARTCHAR 150
ENCODING 150
SWIDTH 1152 0
DWIDTH 16 0
BBX 8 3 3 8
BITMAP
FF
FF
FF
ENDCHAR
STARTCHAR 151
ENCODING 151
SWIDTH 1152 0
DWIDTH 16 0
BBX 16 3 0 8
BITMAP
FFFF
FFFF
FFFF
ENDCHAR
STARTCHAR 152
ENCODING 152
SWIDTH 1152 0
DWIDTH 16 0
BBX 13 5 0 16
BITMAP
3C38
7F38
FFF8
E7F0
E1E0
ENDCHAR
STARTCHAR 153
ENCODING 153
SWIDTH 1152 0
DWIDTH 16 0
BBX 15 8 0 11
BITMAP
FFCE
FFFE
FFFE
39FE
39FE
39CE
39CE
39CE
ENDCHAR
STARTCHAR 154
ENCODING 154
SWIDTH 1152 0
DWIDTH 16 0
BBX 14 22 0 0
BITMAP
1860
3CF0
1FE0
0FC0
0780
0300
0000
0000
0FFC
3FFC
7FFC
F000
E000
FFC0
7FF0
1FF8
003C
001C
003C
FFF8
FFF0
FFC0
ENDCHAR
STARTCHAR 155
ENCODING 155
SWIDTH 1152 0
DWIDTH 16 0
BBX 5 13 0 -1
BITMAP
60
E0
70
70
38
38
38
38
38
78
70
E0
60
ENDCHAR
STARTCHAR 156
ENCODING 156
SWIDTH 1152 0
DWIDTH 16 0
BBX 14 14 0 0
BITMAP
3CF0
7FF8
7FF8
E71C
E71C
E71C
E7FC
E7FC
E7FC
E700
E700
7FFC
7FFC
3CFC
ENDCHAR
STARTCHAR 157
ENCODING 157
SWIDTH 1152 0
DWIDTH 16 0
BBX 0 0 0 0
BITMAP
ENDCHAR
STARTCHAR 158
ENCODING 158
SWIDTH 1152 0
DWIDTH 16 0
BBX 0 0 0 0
BITMAP
ENDCHAR
STARTCHAR 159
ENCODING 159
SWIDTH 1152 0
DWIDTH 16 0
BBX 13 24 0 0
BITMAP
38E0
38E0
38E0
0000
0000
E038
E038
E038
E038
E038
E038
E038
F078
78F0
3DE0
1FC0
0F80
0700
0700
0700
0700
0700
0700
0700
ENDCHAR
STARTCHAR 160
ENCODING 160
SWIDTH 1152 0
DWIDTH 16 0
BBX 0 0 0 0
BITMAP
ENDCHAR
STARTCHAR 161
ENCODING 161
SWIDTH 1152 0
DWIDTH 16 0
BBX 3 19 8 0
BITMAP
E0
E0
E0
00
00
E0
E0
E0
E0
E0
E0
E0
E0
E0
E0
E0
E0
E0
E0
ENDCHAR
STARTCHAR 162
ENCODING 162
SWIDTH 1152 0
DWIDTH 16 0
BBX 13 20 0 -3
BITMAP
0700
0700
0700
0F80
3FE0
7FF0
7770
E738
E738
E700
E700
E700
E700
7700
7FF8
3FF8
0FF8
0700
0700
0700
ENDCHAR
STARTCHAR 163
ENCODING 163
SWIDTH 1152 0
DWIDTH 16 0
BBX 13 22 0 0
BITMAP
0E00
3F80
7F80
71C0
E0E0
E0E0
E000
E000
FF00
FF00
FF00
E000
E000
E000
E000
E000
E038
E038
E070
FFF0
FFE0
FF80
ENDCHAR
STARTCHAR 164
ENCODING 164
SWIDTH 1152 0
DWIDTH 16 0
BBX 13 13 0 0
BITMAP
4010
E038
7070
3FE0
1FC0
1DC0
18C0
1DC0
1FC0
3FE0
7070
E038
4010
ENDCHAR
STARTCHAR 165
ENCODING 165
SWIDTH 1152 0
DWIDTH 16 0
BBX 15 19 0 0
BITMAP
600C
F01E
783C
3C78
1EF0
7FFC
7FFC
7FFC
0380
0380
0380
7FFC
7FFC
7FFC
0380
0380
0380
0380
0380
ENDCHAR
STARTCHAR 166
ENCODING 166
SWIDTH 1152 0
DWIDTH 16 0
BBX 3 25 5 -3
BITMAP
E0
E0
E0
E0
E0
E0
E0
E0
E0
E0
E0
00
00
00
E0
E0
E0
E0
E0
E0
E0
E0
E0
E0
E0
ENDCHAR
STARTCHAR 167
ENCODING 167
SWIDTH 1152 0
DWIDTH 16 0
BBX 14 27 0 -3
BITMAP
0FC0
3FF0
3FF8
7038
701C
781C
3C1C
1E1C
EF00
E780
E3C0
E1E0
F0F0
7878
3C3C
1E1C
0F1C
079C
03DC
E1E0
E0F0
E078
E038
7038
7FF0
3FF0
0F80
ENDCHAR
STARTCHAR 168
ENCODING 168
SWIDTH 1152 0
DWIDTH 16 0
BBX 8 3 3 16
BITMAP
E7
E7
E7
ENDCHAR
STARTCHAR 169
ENCODING 169
SWIDTH 1152 0
DWIDTH 16 0
BBX 14 19 0 0
BITMAP
1C00
FF80
FFE0
C1F0
0070
1F38
7F38
7F18
E01C
E01C
E01C
7F18
7F38
1F38
0070
C1F0
FFE0
FF80
1C00
ENDCHAR
STARTCHAR 170
ENCODING 170
SWIDTH 1152 0
DWIDTH 16 0
BBX 12 16 2 8
BITMAP
0FF0
3FF0
7FF0
7070
E070
E070
E070
7070
7FF0
3FF0
0FF0
0000
0000
FFF0
FFF0
FFF0
ENDCHAR
STARTCHAR 171
ENCODING 171
SWIDTH 1152 0
DWIDTH 16 0
BBX 13 13 0 -1
BITMAP
3030
3838
7070
7070
E0E0
E0E0
E0E0
E0E0
E0E0
7070
7070
3838
3030
ENDCHAR
STARTCHAR 172
ENCODING 172
SWIDTH 1152 0
DWIDTH 16 0
BBX 14 8 0 3
BITMAP
FFFC
FFFC
FFFC
001C
001C
001C
001C
001C
ENDCHAR
STARTCHAR 173
ENCODING 173
SWIDTH 1152 0
DWIDTH 16 0
BBX 13 3 0 8
BITMAP
FFF8
FFF8
FFF8
ENDCHAR
STARTCHAR 174
ENCODING 174
SWIDTH 1152 0
DWIDTH 16 0
BBX 14 17 0 2
BITMAP
1C00
FF80
FFE0
C1F0
0070
F838
FE38
FE18
E71C
E71C
E71C
FE18
FE38
FE38
EFF0
E7F0
E3C0
ENDCHAR
STARTCHAR 175
ENCODING 175
SWIDTH 1152 0
DWIDTH 16 0
BBX 8 3 3 16
BITMAP
FF
FF
FF
ENDCHAR
STARTCHAR 176
ENCODING 176
SWIDTH 1152 0
DWIDTH 16 0
BBX 12 12 2 10
BITMAP
0F00
3FC0
7FE0
70E0
E070
E070
E070
E070
70E0
7FE0
3FC0
0F00
ENDCHAR
STARTCHAR 177
ENCODING 177
SWIDTH 1152 0
DWIDTH 16 0
BBX 13 16 0 0
BITMAP
0700
0700
0700
0700
0700
FFF8
FFF8
FFF8
0700
0700
0700
0700
0700
FFF8
FFF8
FFF8
ENDCHAR
STARTCHAR 178
ENCODING 178
SWIDTH 1152 0
DWIDTH 16 0
BBX 6 9 4 15
BITMAP
78
84
04
04
08
10
20
40
FC
ENDCHAR
STARTCHAR 179
ENCODING 179
SWIDTH 1152 0
DWIDTH 16 0
BBX 6 9 4 15
BITMAP
78
84
04
08
30
08
04
84
78
ENDCHAR
STARTCHAR 180
ENCODING 180
SWIDTH 1152 0
DWIDTH 16 0
BBX 7 6 5 16
BITMAP
0C
1E
3C
78
F0
60
ENDCHAR
STARTCHAR 181
ENCODING 181
SWIDTH 1152 0
DWIDTH 16 0
BBX 14 18 0 -5
BITMAP
E0E0
E0E0
E0E0
E0E0
E0E0
E0E0
E0E0
E0E0
E0E0
E1F0
FFFC
FFBC
FE0C
E000
E000
E000
E000
E000
ENDCHAR
STARTCHAR 182
ENCODING 182
SWIDTH 1152 0
DWIDTH 16 0
BBX 14 22 0 0
BITMAP
07FC
1FFC
3FFC
7F1C
771C
E71C
E71C
E71C
E71C
771C
7F1C
3FFC
1FFC
07FC
071C
071C
071C
071C
071C
071C
071C
071C
ENDCHAR
STARTCHAR 183
ENCODING 183
SWIDTH 1152 0
DWIDTH 16 0
BBX 5 5 5 6
BITMAP
70
F8
F8
F8
70
ENDCHAR
STARTCHAR 184
ENCODING 184
SWIDTH 1152 0
DWIDTH 16 0
BBX 6 8 3 -5
BITMAP
FC
FC
FC
3C
7C
F8
F0
60
ENDCHAR
STARTCHAR 185
ENCODING 185
SWIDTH 1152 0
DWIDTH 16 0
BBX 7 9 4 15
BITMAP
10
70
10
10
10
10
10
10
FE
ENDCHAR
STARTCHAR 186
ENCODING 186
SWIDTH 1152 0
DWIDTH 16 0
BBX 11 16 3 8
BITMAP
0E00
3F80
7FC0
71C0
E0E0
E0E0
E0E0
71C0
7FC0
3F80
0E00
0000
0000
FFE0
FFE0
FFE0
ENDCHAR
STARTCHAR 187
ENCODING 187
SWIDTH 1152 0
DWIDTH 16 0
BBX 13 13 0 -1
BITMAP
6060
E0E0
7070
7070
3838
3838
3838
3838
3838
7070
7070
E0E0
6060
ENDCHAR
STARTCHAR 188
ENCODING 188
SWIDTH 1152 0
DWIDTH 16 0
BBX 15 24 0 0
BITMAP
0800
3800
0800
0800
0800
0800
0802
0804
7F08
0010
0020
0040
0080
0100
0200
0408
0818
1028
2048
4088
80FE
0008
0008
003E
ENDCHAR
STARTCHAR 189
ENCODING 189
SWIDTH 1152 0
DWIDTH 16 0
BBX 15 24 0 0
BITMAP
0800
3800
0800
0800
0800
0800
0802
0804
7F08
0010
0020
0040
0080
0100
0200
0478
0884
1004
2004
4008
8010
0020
0040
00FC
ENDCHAR
STARTCHAR 190
ENCODING 190
SWIDTH 1152 0
DWIDTH 16 0
BBX 15 24 0 0
BITMAP
1E00
2100
0100
0200
0C00
0200
0102
2104
1E08
0010
0020
0040
0080
0100
0200
0408
0818
1028
2048
4088
80FE
0008
0008
003E
ENDCHAR
STARTCHAR 191
ENCODING 191
SWIDTH 1152 0
DWIDTH 16 0
BBX 14 19 0 0
BITMAP
0380
0380
0380
0000
0000
0380
0780
0F00
1E00
3C00
7800
F000
E000
E01C
E01C
7038
7FF8
3FF0
0FC0
ENDCHAR
STARTCHAR 192
ENCODING 192
SWIDTH 1152 0
DWIDTH 16 0
BBX 14 24 0 0
BITMAP
1800
3C00
1E00
0F00
0780
0780
0780
0FC0
0FC0
1CE0
1CE0
3870
3870
7038
7038
E01C
FFFC
FFFC
FFFC
E01C
E01C
E01C
E01C
E01C
ENDCHAR
STARTCHAR 193
ENCODING 193
SWIDTH 1152 0
DWIDTH 16 0
BBX 14 24 0 0
BITMAP
0060
00F0
01E0
03C0
0780
0780
0780
0FC0
0FC0
1CE0
1CE0
3870
3870
7038
7038
E01C
FFFC
FFFC
FFFC
E01C
E01C
E01C
E01C
E01C
ENDCHAR
STARTCHAR 194
ENCODING 194
SWIDTH 1152 0
DWIDTH 16 0
BBX 14 24 0 0
BITMAP
0300
0780
0FC0
1FE0
1CE0
0B40
0780
0FC0
0FC0
1CE0
1CE0
3870
3870
7038
7038
E01C
FFFC
FFFC
FFFC
E01C
E01C
E01C
E01C
E01C
ENDCHAR
STARTCHAR 195
ENCODING 195
SWIDTH 1152 0
DWIDTH 16 0
BBX 14 24 0 0
BITMAP
3C38
7F38
FFF8
E7F0
E1E0
0780
0780
0FC0
0FC0
1CE0
1CE0
3870
3870
7038
7038
E01C
FFFC
FFFC
FFFC
E01C
E01C
E01C
E01C
E01C
ENDCHAR
STARTCHAR 196
ENCODING 196
SWIDTH 1152 0
DWIDTH 16 0
BBX 14 24 0 0
BITMAP
3870
3870
3870
0000
0000
0780
0780
0FC0
0FC0
1CE0
1CE0
3870
3870
7038
7038
E01C
FFFC
FFFC
FFFC
E01C
E01C
E01C
E01C
E01C
ENDCHAR
STARTCHAR 197
ENCODING 197
SWIDTH 1152 0
DWIDTH 16 0
BBX 14 24 0 0
BITMAP
0780
0FC0
1CE0
1860
1CE0
0FC0
0780
0FC0
0FC0
1CE0
1CE0
3870
3870
7038
7038
E01C
FFFC
FFFC
FFFC
E01C
E01C
E01C
E01C
E01C
ENDCHAR
STARTCHAR 198
ENCODING 198
SWIDTH 1152 0
DWIDTH 16 0
BBX 14 19 0 0
BITMAP
0FFC
3FFC
7FFC
7700
E700
E700
E700
E700
FFE0
FFE0
FFE0
E700
E700
E700
E700
E700
E7FC
E7FC
E7FC
ENDCHAR
STARTCHAR 199
ENCODING 199
SWIDTH 1152 0
DWIDTH 16 0
BBX 14 24 0 -5
BITMAP
0FC0
3FF0
7FF8
7038
E01C
E01C
E000
E000
E000
E000
E000
E000
E000
E01C
E01C
7038
7FF8
3FF0
0FC0
0700
0F00
1E00
3C00
1800
ENDCHAR
STARTCHAR 200
ENCODING 200
SWIDTH 1152 0
DWIDTH 16 0
BBX 14 24 0 0
BITMAP
1800
3C00
1E00
0F00
0780
FFFC
FFFC
FFFC
E000
E000
E000
E000
E000
FFE0
FFE0
FFE0
E000
E000
E000
E000
E000
FFFC
FFFC
FFFC
ENDCHAR
STARTCHAR 201
ENCODING 201
SWIDTH 1152 0
DWIDTH 16 0
BBX 14 24 0 0
BITMAP
0060
00F0
01E0
03C0
0780
FFFC
FFFC
FFFC
E000
E000
E000
E000
E000
FFE0
FFE0
FFE0
E000
E000
E000
E000
E000
FFFC
FFFC
FFFC
ENDCHAR
STARTCHAR 202
ENCODING 202
SWIDTH 1152 0
DWIDTH 16 0
BBX 14 24 0 0
BITMAP
0300
0780
0FC0
1FE0
1CE0
FFFC
FFFC
FFFC
E000
E000
E000
E000
E000
FFE0
FFE0
FFE0
E000
E000
E000
E000
E000
FFFC
FFFC
FFFC
ENDCHAR
STARTCHAR 203
ENCODING 203
SWIDTH 1152 0
DWIDTH 16 0
BBX 14 24 0 0
BITMAP
3870
3870
3870
0000
0000
FFFC
FFFC
FFFC
E000
E000
E000
E000
E000
FFE0
FFE0
FFE0
E000
E000
E000
E000
E000
FFFC
FFFC
FFFC
ENDCHAR
STARTCHAR 204
ENCODING 204
SWIDTH 1152 0
DWIDTH 16 0
BBX 13 24 0 0
BITMAP
1800
3C00
1E00
0F00
0700
FFF8
FFF8
FFF8
0700
0700
0700
0700
0700
0700
0700
0700
0700
0700
0700
0700
0700
FFF8
FFF8
FFF8
ENDCHAR
STARTCHAR 205
ENCODING 205
SWIDTH 1152 0
DWIDTH 16 0
BBX 13 24 0 0
BITMAP
00C0
01E0
03C0
0780
0700
FFF8
FFF8
FFF8
0700
0700
0700
0700
0700
0700
0700
0700
0700
0700
0700
0700
0700
FFF8
FFF8
FFF8
ENDCHAR
STARTCHAR 206
ENCODING 206
SWIDTH 1152 0
DWIDTH 16 0
BBX 13 24 0 0
BITMAP
0200
0700
0F80
1FC0
38E0
FFF8
FFF8
FFF8
0700
0700
0700
0700
0700
0700
0700
0700
0700
0700
0700
0700
0700
FFF8
FFF8
FFF8
ENDCHAR
STARTCHAR 207
ENCODING 207
SWIDTH 1152 0
DWIDTH 16 0
BBX 13 24 0 0
BITMAP
38E0
38E0
38E0
0000
0000
FFF8
FFF8
FFF8
0700
0700
0700
0700
0700
0700
0700
0700
0700
0700
0700
0700
0700
FFF8
FFF8
FFF8
ENDCHAR
STARTCHAR 208
ENCODING 208
SWIDTH 1152 0
DWIDTH 16 0
BBX 14 19 0 0
BITMAP
1FC0
1FF0
1FF8
1C38
1C1C
1C1C
1C1C
1C1C
FF9C
FF9C
FF9C
1C1C
1C1C
1C1C
1C1C
1C38
1FF8
1FF0
1FC0
ENDCHAR
STARTCHAR 209
ENCODING 209
SWIDTH 1152 0
DWIDTH 16 0
BBX 14 24 0 0
BITMAP
3C38
7F38
FFF8
E7F0
E1E0
E01C
F01C
F81C
FC1C
FE1C
EF1C
E79C
E3DC
E1FC
E0FC
E07C
E03C
E01C
E01C
E01C
E01C
E01C
E01C
E01C
ENDCHAR
STARTCHAR 210
ENCODING 210
SWIDTH 1152 0
DWIDTH 16 0
BBX 14 24 0 0
BITMAP
0C00
1E00
0F00
0780
0380
0FC0
3FF0
7FF8
7038
E01C
E01C
E01C
E01C
E01C
E01C
E01C
E01C
E01C
E01C
E01C
7038
7FF8
3FF0
0FC0
ENDCHAR
STARTCHAR 211
ENCODING 211
SWIDTH 1152 0
DWIDTH 16 0
BBX 14 24 0 0
BITMAP
00C0
01E0
03C0
0780
0700
0FC0
3FF0
7FF8
7038
E01C
E01C
E01C
E01C
E01C
E01C
E01C
E01C
E01C
E01C
E01C
7038
7FF8
3FF0
0FC0
ENDCHAR
STARTCHAR 212
ENCODING 212
SWIDTH 1152 0
DWIDTH 16 0
BBX 14 24 0 0
BITMAP
0300
0780
0FC0
1FE0
3CF0
1860
0FC0
3FF0
7FF8
7038
E01C
E01C
E01C
E01C
E01C
E01C
E01C
E01C
E01C
E01C
7038
7FF8
3FF0
0FC0
ENDCHAR
STARTCHAR 213
ENCODING 213
SWIDTH 1152 0
DWIDTH 16 0
BBX 14 24 0 0
BITMAP
3C38
7F38
FFF8
E7F0
E1E0
0FC0
3FF0
7FF8
7038
E01C
E01C
E01C
E01C
E01C
E01C
E01C
E01C
E01C
E01C
E01C
7038
7FF8
3FF0
0FC0
ENDCHAR
STARTCHAR 214
ENCODING 214
SWIDTH 1152 0
DWIDTH 16 0
BBX 14 24 0 0
BITMAP
3870
3870
3870
0000
0000
0FC0
3FF0
7FF8
7038
E01C
E01C
E01C
E01C
E01C
E01C
E01C
E01C
E01C
E01C
E01C
7038
7FF8
3FF0
0FC0
ENDCHAR
STARTCHAR 215
ENCODING 215
SWIDTH 1152 0
DWIDTH 16 0
BBX 14 13 0 3
BITMAP
6018
F03C
7878
3CF0
1FE0
0FC0
0780
0FC0
1FE0
3CF0
7878
F03C
6018
ENDCHAR
STARTCHAR 216
ENCODING 216
SWIDTH 1152 0
DWIDTH 16 0
BBX 14 19 0 0
BITMAP
0FC0
3FF0
7FF8
7038
E03C
E07C
E0FC
E1FC
E3DC
E79C
EF1C
FE1C
FC1C
F81C
F01C
7038
7FF8
3FF0
0FC0
ENDCHAR
STARTCHAR 217
ENCODING 217
SWIDTH 1152 0
DWIDTH 16 0
BBX 14 24 0 0
BITMAP
1800
3C00
1E00
0F00
0780
E31C
E01C
E01C
E01C
E01C
E01C
E01C
E01C
E01C
E01C
E01C
E01C
E01C
E01C
E01C
7038
7FF8
3FF0
0FC0
ENDCHAR
STARTCHAR 218
ENCODING 218
SWIDTH 1152 0
DWIDTH 16 0
BBX 14 24 0 0
BITMAP
0060
00F0
01E0
03C0
0780
E31C
E01C
E01C
E01C
E01C
E01C
E01C
E01C
E01C
E01C
E01C
E01C
E01C
E01C
E01C
7038
7FF8
3FF0
0FC0
ENDCHAR
STARTCHAR 219
ENCODING 219
SWIDTH 1152 0
DWIDTH 16 0
BBX 14 24 0 0
BITMAP
0300
0780
0FC0
1FE0
3CF0
1860
E01C
E01C
E01C
E01C
E01C
E01C
E01C
E01C
E01C
E01C
E01C
E01C
E01C
E01C
7038
7FF8
3FF0
0FC0
ENDCHAR
STARTCHAR 220
ENCODING 220
SWIDTH 1152 0
DWIDTH 16 0
BBX 14 24 0 0
BITMAP
3870
3870
3870
0000
0000
E01C
E01C
E01C
E01C
E01C
E01C
E01C
E01C
E01C
E01C
E01C
E01C
E01C
E01C
E01C
7038
7FF8
3FF0
0FC0
ENDCHAR
STARTCHAR 221
ENCODING 221
SWIDTH 1152 0
DWIDTH 16 0
BBX 13 24 0 0
BITMAP
0060
00F0
01E0
03C0
0780
E338
E038
E038
E038
E038
E038
E038
F078
78F0
3DE0
1FC0
0F80
0700
0700
0700
0700
0700
0700
0700
ENDCHAR
STARTCHAR 222
ENCODING 222
SWIDTH 1152 0
DWIDTH 16 0
BBX 14 19 0 0
BITMAP
E000
E000
E000
FFC0
FFF0
FFF8
E038
E01C
E01C
E01C
E038
FFF8
FFF0
FFC0
E000
E000
E000
E000
E000
ENDCHAR
STARTCHAR 223
ENCODING 223
SWIDTH 1152 0
DWIDTH 16 0
BBX 13 25 0 -3
BITMAP
03C0
07E0
0FF0
1E78
3C38
7838
F038
E038
E070
E0E0
E0E0
E0E0
E0E0
E070
E038
E038
E038
E038
E078
E3F0
E3E0
E3C0
E000
E000
E000
ENDCHAR
STARTCHAR 224
ENCODING 224
SWIDTH 1152 0
DWIDTH 16 0
BBX 14 22 0 0
BITMAP
0600
0F00
0780
03C0
01E0
00C0
0000
0000
0FFC
3FFC
7FFC
701C
E01C
E01C
E01C
E01C
E03C
E07C
71FC
7FDC
3F9C
0E1C
ENDCHAR
STARTCHAR 225
ENCODING 225
SWIDTH 1152 0
DWIDTH 16 0
BBX 14 22 0 0
BITMAP
0060
00F0
01E0
03C0
0780
0300
0000
0000
0FFC
3FFC
7FFC
701C
E01C
E01C
E01C
E01C
E03C
E07C
71FC
7FDC
3F9C
0E1C
ENDCHAR
STARTCHAR 226
ENCODING 226
SWIDTH 1152 0
DWIDTH 16 0
BBX 14 22 0 0
BITMAP
0300
0780
0FC0
1FE0
3CF0
1860
0000
0000
0FFC
3FFC
7FFC
701C
E01C
E01C
E01C
E01C
E03C
E07C
71FC
7FDC
3F9C
0E1C
ENDCHAR
STARTCHAR 227
ENCODING 227
SWIDTH 1152 0
DWIDTH 16 0
BBX 14 21 0 0
BITMAP
3C38
7F38
FFF8
E7F0
E1E0
0000
0000
0FFC
3FFC
7FFC
701C
E01C
E01C
E01C
E01C
E03C
E07C
71FC
7FDC
3F9C
0E1C
ENDCHAR
STARTCHAR 228
ENCODING 228
SWIDTH 1152 0
DWIDTH 16 0
BBX 14 19 0 0
BITMAP
3870
3870
3870
0000
0000
0FFC
3FFC
7FFC
701C
E01C
E01C
E01C
E01C
E03C
E07C
71FC
7FDC
3F9C
0E1C
ENDCHAR
STARTCHAR 229
ENCODING 229
SWIDTH 1152 0
DWIDTH 16 0
BBX 14 21 0 0
BITMAP
07C0
0FE0
0C60
0C60
0C60
0FE0
07C0
0FFC
3FFC
7FFC
701C
E01C
E01C
E01C
E01C
E03C
E07C
71FC
7FDC
3F9C
0E1C
ENDCHAR
STARTCHAR 230
ENCODING 230
SWIDTH 1152 0
DWIDTH 16 0
BBX 14 14 0 0
BITMAP
0FC0
3FF0
7FF8
7778
E73C
E71C
E7FC
E7FC
E7FC
E700
7700
7FFC
3FFC
0FFC
ENDCHAR
STARTCHAR 231
ENCODING 231
SWIDTH 1152 0
DWIDTH 16 0
BBX 14 19 0 -5
BITMAP
0FC0
3FF0
7FF8
7038
E01C
E01C
E000
E000
E000
E000
7000
7FFC
3FFC
0FFC
0700
0F00
1E00
3C00
1800
ENDCHAR
STARTCHAR 232
ENCODING 232
SWIDTH 1152 0
DWIDTH 16 0
BBX 14 22 0 0
BITMAP
1800
3C00
1E00
0F00
0780
0300
0000
0000
0FC0
3FF0
7FF8
7038
E01C
E01C
FFFC
FFFC
FFFC
E000
7000
7FFC
3FFC
0FFC
ENDCHAR
STARTCHAR 233
ENCODING 233
SWIDTH 1152 0
DWIDTH 16 0
BBX 14 22 0 0
BITMAP
0060
00F0
01E0
03C0
0780
0300
0000
0000
0FC0
3FF0
7FF8
7038
E01C
E01C
FFFC
FFFC
FFFC
E000
7000
7FFC
3FFC
0FFC
ENDCHAR
STARTCHAR 234
ENCODING 234
SWIDTH 1152 0
DWIDTH 16 0
BBX 14 22 0 0
BITMAP
0300
0780
0FC0
1FE0
3CF0
1860
0000
0000
0FC0
3FF0
7FF8
7038
E01C
E01C
FFFC
FFFC
FFFC
E000
7000
7FFC
3FFC
0FFC
ENDCHAR
STARTCHAR 235
ENCODING 235
SWIDTH 1152 0
DWIDTH 16 0
BBX 14 19 0 0
BITMAP
3870
3870
3870
0000
0000
0FC0
3FF0
7FF8
7038
E01C
E01C
FFFC
FFFC
FFFC
E000
7000
7FFC
3FFC
0FFC
ENDCHAR
STARTCHAR 236
ENCODING 236
SWIDTH 1152 0
DWIDTH 16 0
BBX 9 22 2 0
BITMAP
6000
F000
7800
3C00
1E00
0C00
0000
0000
FC00
FC00
FC00
1C00
1C00
1C00
1C00
1C00
1C00
1C00
1C00
FF80
FF80
FF80
ENDCHAR
STARTCHAR 237
ENCODING 237
SWIDTH 1152 0
DWIDTH 16 0
BBX 9 22 2 0
BITMAP
0300
0780
0F00
1E00
3C00
1800
0000
0000
FC00
FC00
FC00
1C00
1C00
1C00
1C00
1C00
1C00
1C00
1C00
FF80
FF80
FF80
ENDCHAR
STARTCHAR 238
ENCODING 238
SWIDTH 1152 0
DWIDTH 16 0
BBX 10 22 2 0
BITMAP
0C00
1E00
3F00
7F80
F3C0
6180
0000
0000
FC00
FC00
FC00
1C00
1C00
1C00
1C00
1C00
1C00
1C00
1C00
FF80
FF80
FF80
ENDCHAR
STARTCHAR 239
ENCODING 239
SWIDTH 1152 0
DWIDTH 16 0
BBX 9 19 2 0
BITMAP
E380
E380
E380
0000
0000
FC00
FC00
FC00
1C00
1C00
1C00
1C00
1C00
1C00
1C00
1C00
FF80
FF80
FF80
ENDCHAR
STARTCHAR 240
ENCODING 240
SWIDTH 1152 0
DWIDTH 16 0
BBX 14 23 0 0
BITMAP
3180
7BC0
3F80
1F00
1F00
3F80
7BC0
31E0
00F0
0FF8
3FFC
7FFC
703C
E01C
E01C
E01C
E01C
E01C
E01C
7038
7FF8
3FF0
0FC0
ENDCHAR
STARTCHAR 241
ENCODING 241
SWIDTH 1152 0
DWIDTH 16 0
BBX 14 21 0 0
BITMAP
3C38
7F38
FFF8
E7F0
E1E0
0000
0000
E1C0
E7F0
EFF8
FE38
F81C
F01C
E01C
E01C
E01C
E01C
E01C
E01C
E01C
E01C
ENDCHAR
STARTCHAR 242
ENCODING 242
SWIDTH 1152 0
DWIDTH 16 0
BBX 14 22 0 0
BITMAP
1800
3C00
1E00
0F00
0780
0300
0000
0000
0FC0
3FF0
7FF8
7038
E01C
E01C
E01C
E01C
E01C
E01C
7038
7FF8
3FF0
0FC0
ENDCHAR
STARTCHAR 243
ENCODING 243
SWIDTH 1152 0
DWIDTH 16 0
BBX 14 22 0 0
BITMAP
0060
00F0
01E0
03C0
0780
0300
0000
0000
0FC0
3FF0
7FF8
7038
E01C
E01C
E01C
E01C
E01C
E01C
7038
7FF8
3FF0
0FC0
ENDCHAR
STARTCHAR 244
ENCODING 244
SWIDTH 1152 0
DWIDTH 16 0
BBX 14 22 0 0
BITMAP
0300
0780
0FC0
1FE0
3CF0
1860
0000
0000
0FC0
3FF0
7FF8
7038
E01C
E01C
E01C
E01C
E01C
E01C
7038
7FF8
3FF0
0FC0
ENDCHAR
STARTCHAR 245
ENCODING 245
SWIDTH 1152 0
DWIDTH 16 0
BBX 14 21 0 0
BITMAP
3C38
7F38
FFF8
E7F0
E1E0
0000
0000
0FC0
3FF0
7FF8
7038
E01C
E01C
E01C
E01C
E01C
E01C
7038
7FF8
3FF0
0FC0
ENDCHAR
STARTCHAR 246
ENCODING 246
SWIDTH 1152 0
DWIDTH 16 0
BBX 14 19 0 0
BITMAP
3870
3870
3870
0000
0000
0FC0
3FF0
7FF8
7038
E01C
E01C
E01C
E01C
E01C
E01C
7038
7FF8
3FF0
0FC0
ENDCHAR
STARTCHAR 247
ENCODING 247
SWIDTH 1152 0
DWIDTH 16 0
BBX 13 14 0 2
BITMAP
0700
0700
0700
0000
0000
FFF8
FFF8
FFF8
0000
0000
0000
0700
0700
0700
ENDCHAR
STARTCHAR 248
ENCODING 248
SWIDTH 1152 0
DWIDTH 16 0
BBX 14 14 0 0
BITMAP
0FC0
3FF0
7FF8
7078
E0FC
E1DC
E39C
E71C
EE1C
FC1C
7838
7FF8
3FF0
0FC0
ENDCHAR
STARTCHAR 249
ENCODING 249
SWIDTH 1152 0
DWIDTH 16 0
BBX 14 22 0 0
BITMAP
1800
3C00
1E00
0F00
0780
0300
0000
0000
E01C
E01C
E01C
E01C
E01C
E01C
E01C
E01C
E03C
E07C
71FC
7FDC
3F9C
0E1C
ENDCHAR
STARTCHAR 250
ENCODING 250
SWIDTH 1152 0
DWIDTH 16 0
BBX 14 22 0 0
BITMAP
0060
00F0
01E0
03C0
0780
0300
0000
0000
E01C
E01C
E01C
E01C
E01C
E01C
E01C
E01C
E03C
E07C
71FC
7FDC
3F9C
0E1C
ENDCHAR
STARTCHAR 251
ENCODING 251
SWIDTH 1152 0
DWIDTH 16 0
BBX 14 22 0 0
BITMAP
0300
0780
0FC0
1FE0
3CF0
1860
0000
0000
E01C
E01C
E01C
E01C
E01C
E01C
E01C
E01C
E03C
E07C
71FC
7FDC
3F9C
0E1C
ENDCHAR
STARTCHAR 252
ENCODING 252
SWIDTH 1152 0
DWIDTH 16 0
BBX 14 19 0 0
BITMAP
3870
3870
3870
0000
0000
E01C
E01C
E01C
E01C
E01C
E01C
E01C
E01C
E03C
E07C
71FC
7FDC
3F9C
0E1C
ENDCHAR
STARTCHAR 253
ENCODING 253
SWIDTH 1152 0
DWIDTH 16 0
BBX 14 27 0 -5
BITMAP
0060
00F0
01E0
03C0
0780
0300
0000
0000
E01C
E01C
E01C
E01C
E01C
E01C
E01C
E01C
E01C
E01C
701C
7FFC
3FFC
0FFC
001C
0038
1FF8
1FF0
1FC0
ENDCHAR
STARTCHAR 254
ENCODING 254
SWIDTH 1152 0
DWIDTH 16 0
BBX 14 24 0 -5
BITMAP
E000
E000
E000
E000
E000
FFC0
FFF0
FFF8
E038
E01C
E01C
E01C
E01C
E01C
E01C
E038
FFF8
FFF0
FFC0
E000
E000
E000
E000
E000
ENDCHAR
STARTCHAR 255
ENCODING 255
SWIDTH 1152 0
DWIDTH 16 0
BBX 14 24 0 -5
BITMAP
3870
3870
3870
0000
0000
E01C
E01C
E01C
E01C
E01C
E01C
E01C
E01C
E01C
E01C
701C
7FFC
3FFC
1FFC
001C
0038
1FF8
1FF0
1FE0
ENDCHAR
ENDFONT
